<mxfile host="app.diagrams.net" agent="Mozilla/5.0 (Windows NT 10.0; Win64; x64) AppleWebKit/537.36 (KHTML, like Gecko) Chrome/133.0.0.0 Safari/537.36" version="26.0.16">
  <diagram name="PÃ¡gina-1" id="1xIRyRh4iRE5aBQNl5tr">
    <mxGraphModel grid="1" page="1" gridSize="10" guides="1" tooltips="1" connect="1" arrows="1" fold="1" pageScale="1" pageWidth="827" pageHeight="1169" math="1" shadow="0">
      <root>
        <mxCell id="0" />
        <mxCell id="1" parent="0" />
        <mxCell id="ZQA3wwWxL-3Idx1iSvBM-1" value="&lt;span style=&quot;white-space: pre;&quot;&gt;&#x9;&lt;/span&gt;" style="pointerEvents=1;verticalLabelPosition=bottom;shadow=0;dashed=0;align=center;html=1;verticalAlign=top;shape=mxgraph.electrical.resistors.resistor_1;rotation=90;fillColor=#dae8fc;strokeColor=#6c8ebf;" vertex="1" parent="1">
          <mxGeometry x="-290" y="160" width="100" height="20" as="geometry" />
        </mxCell>
        <mxCell id="VY9G5zSrZEhaTL2IFppu-1" value="&lt;span style=&quot;white-space: pre;&quot;&gt;&#x9;&lt;/span&gt;" style="pointerEvents=1;verticalLabelPosition=bottom;shadow=0;dashed=0;align=center;html=1;verticalAlign=top;shape=mxgraph.electrical.resistors.resistor_1;rotation=90;fillColor=#dae8fc;strokeColor=#6c8ebf;" vertex="1" parent="1">
          <mxGeometry x="-130" y="160" width="100" height="20" as="geometry" />
        </mxCell>
        <mxCell id="VY9G5zSrZEhaTL2IFppu-2" value="&lt;span style=&quot;white-space: pre;&quot;&gt;&#x9;&lt;/span&gt;" style="pointerEvents=1;verticalLabelPosition=bottom;shadow=0;dashed=0;align=center;html=1;verticalAlign=top;shape=mxgraph.electrical.resistors.resistor_1;rotation=90;fillColor=#dae8fc;strokeColor=#6c8ebf;" vertex="1" parent="1">
          <mxGeometry x="-290" y="280" width="100" height="20" as="geometry" />
        </mxCell>
        <mxCell id="VY9G5zSrZEhaTL2IFppu-3" value="&lt;span style=&quot;white-space: pre;&quot;&gt;&#x9;&lt;/span&gt;" style="pointerEvents=1;verticalLabelPosition=bottom;shadow=0;dashed=0;align=center;html=1;verticalAlign=top;shape=mxgraph.electrical.resistors.resistor_1;rotation=90;fillColor=#dae8fc;strokeColor=#6c8ebf;" vertex="1" parent="1">
          <mxGeometry x="-130" y="280" width="100" height="20" as="geometry" />
        </mxCell>
        <mxCell id="VY9G5zSrZEhaTL2IFppu-5" value="&lt;span style=&quot;white-space: pre;&quot;&gt;&#x9;&lt;/span&gt;" style="pointerEvents=1;verticalLabelPosition=bottom;shadow=0;dashed=0;align=center;html=1;verticalAlign=top;shape=mxgraph.electrical.resistors.resistor_1;rotation=-180;fillColor=#d5e8d4;strokeColor=#82b366;" vertex="1" parent="1">
          <mxGeometry x="-206" y="230" width="100" height="20" as="geometry" />
        </mxCell>
        <mxCell id="VY9G5zSrZEhaTL2IFppu-6" value="" style="endArrow=none;html=1;rounded=0;entryX=1;entryY=0.5;entryDx=0;entryDy=0;entryPerimeter=0;exitX=0;exitY=0.5;exitDx=0;exitDy=0;exitPerimeter=0;" edge="1" parent="1" source="VY9G5zSrZEhaTL2IFppu-3" target="VY9G5zSrZEhaTL2IFppu-1">
          <mxGeometry width="50" height="50" relative="1" as="geometry">
            <mxPoint x="-180" y="320" as="sourcePoint" />
            <mxPoint x="-130" y="270" as="targetPoint" />
          </mxGeometry>
        </mxCell>
        <mxCell id="VY9G5zSrZEhaTL2IFppu-11" value="" style="endArrow=none;html=1;rounded=0;exitX=0;exitY=0.5;exitDx=0;exitDy=0;exitPerimeter=0;entryX=0;entryY=0.5;entryDx=0;entryDy=0;entryPerimeter=0;" edge="1" parent="1" source="VY9G5zSrZEhaTL2IFppu-5" target="VY9G5zSrZEhaTL2IFppu-3">
          <mxGeometry width="50" height="50" relative="1" as="geometry">
            <mxPoint x="-120" y="270" as="sourcePoint" />
            <mxPoint x="-70" y="220" as="targetPoint" />
          </mxGeometry>
        </mxCell>
        <mxCell id="VY9G5zSrZEhaTL2IFppu-12" value="" style="endArrow=none;html=1;rounded=0;entryX=0;entryY=0.5;entryDx=0;entryDy=0;entryPerimeter=0;exitX=1;exitY=0.5;exitDx=0;exitDy=0;exitPerimeter=0;" edge="1" parent="1" source="ZQA3wwWxL-3Idx1iSvBM-1" target="VY9G5zSrZEhaTL2IFppu-2">
          <mxGeometry width="50" height="50" relative="1" as="geometry">
            <mxPoint x="-300" y="260" as="sourcePoint" />
            <mxPoint x="-250" y="210" as="targetPoint" />
          </mxGeometry>
        </mxCell>
        <mxCell id="VY9G5zSrZEhaTL2IFppu-13" value="" style="endArrow=none;html=1;rounded=0;entryX=1;entryY=0.5;entryDx=0;entryDy=0;entryPerimeter=0;exitX=0;exitY=0.5;exitDx=0;exitDy=0;exitPerimeter=0;" edge="1" parent="1" source="VY9G5zSrZEhaTL2IFppu-2" target="VY9G5zSrZEhaTL2IFppu-5">
          <mxGeometry width="50" height="50" relative="1" as="geometry">
            <mxPoint x="-250" y="280" as="sourcePoint" />
            <mxPoint x="-200" y="230" as="targetPoint" />
          </mxGeometry>
        </mxCell>
        <mxCell id="nPWJXk-B_UrNQ5ypHHTN-2" value="" style="endArrow=classic;html=1;rounded=0;" edge="1" parent="1">
          <mxGeometry width="50" height="50" relative="1" as="geometry">
            <mxPoint x="-130" y="100" as="sourcePoint" />
            <mxPoint x="-130" y="140" as="targetPoint" />
          </mxGeometry>
        </mxCell>
        <mxCell id="nPWJXk-B_UrNQ5ypHHTN-3" value="" style="endArrow=none;html=1;rounded=0;" edge="1" parent="1">
          <mxGeometry width="50" height="50" relative="1" as="geometry">
            <mxPoint x="-130" y="100" as="sourcePoint" />
            <mxPoint x="-80" y="100" as="targetPoint" />
          </mxGeometry>
        </mxCell>
        <mxCell id="nPWJXk-B_UrNQ5ypHHTN-4" value="$$E_{i}$$" style="text;html=1;align=center;verticalAlign=middle;whiteSpace=wrap;rounded=0;flipV=1;" vertex="1" parent="1">
          <mxGeometry x="-140" y="70" width="60" height="30" as="geometry" />
        </mxCell>
        <mxCell id="nPWJXk-B_UrNQ5ypHHTN-5" value="$$Z_{RIS}$$" style="text;html=1;align=center;verticalAlign=middle;whiteSpace=wrap;rounded=0;" vertex="1" parent="1">
          <mxGeometry x="-183" y="225" width="56" height="30" as="geometry" />
        </mxCell>
        <mxCell id="nPWJXk-B_UrNQ5ypHHTN-7" value="" style="endArrow=classic;html=1;rounded=0;" edge="1" parent="1">
          <mxGeometry width="50" height="50" relative="1" as="geometry">
            <mxPoint x="-180.39571428571395" y="99.6" as="sourcePoint" />
            <mxPoint x="-180.39571428571395" y="59.6" as="targetPoint" />
          </mxGeometry>
        </mxCell>
        <mxCell id="nPWJXk-B_UrNQ5ypHHTN-8" value="" style="endArrow=none;html=1;rounded=0;" edge="1" parent="1">
          <mxGeometry width="50" height="50" relative="1" as="geometry">
            <mxPoint x="-180.39999999999998" y="99.6" as="sourcePoint" />
            <mxPoint x="-230.39999999999998" y="99.6" as="targetPoint" />
          </mxGeometry>
        </mxCell>
        <mxCell id="nPWJXk-B_UrNQ5ypHHTN-10" value="$$E_{s}$$" style="text;html=1;align=center;verticalAlign=middle;whiteSpace=wrap;rounded=0;flipV=1;" vertex="1" parent="1">
          <mxGeometry x="-230" y="100" width="60" height="30" as="geometry" />
        </mxCell>
        <mxCell id="nPWJXk-B_UrNQ5ypHHTN-13" value="&lt;span style=&quot;white-space: pre;&quot;&gt;&#x9;&lt;/span&gt;" style="pointerEvents=1;verticalLabelPosition=bottom;shadow=0;dashed=0;align=center;html=1;verticalAlign=top;shape=mxgraph.electrical.resistors.resistor_1;rotation=90;fillColor=#dae8fc;strokeColor=#6c8ebf;" vertex="1" parent="1">
          <mxGeometry x="-30" y="160" width="100" height="20" as="geometry" />
        </mxCell>
        <mxCell id="nPWJXk-B_UrNQ5ypHHTN-14" value="&lt;span style=&quot;white-space: pre;&quot;&gt;&#x9;&lt;/span&gt;" style="pointerEvents=1;verticalLabelPosition=bottom;shadow=0;dashed=0;align=center;html=1;verticalAlign=top;shape=mxgraph.electrical.resistors.resistor_1;rotation=90;fillColor=#dae8fc;strokeColor=#6c8ebf;" vertex="1" parent="1">
          <mxGeometry x="130" y="160" width="100" height="20" as="geometry" />
        </mxCell>
        <mxCell id="nPWJXk-B_UrNQ5ypHHTN-15" value="&lt;span style=&quot;white-space: pre;&quot;&gt;&#x9;&lt;/span&gt;" style="pointerEvents=1;verticalLabelPosition=bottom;shadow=0;dashed=0;align=center;html=1;verticalAlign=top;shape=mxgraph.electrical.resistors.resistor_1;rotation=90;fillColor=#e3c800;strokeColor=#B09500;fontColor=#000000;" vertex="1" parent="1">
          <mxGeometry x="-30" y="280" width="100" height="20" as="geometry" />
        </mxCell>
        <mxCell id="nPWJXk-B_UrNQ5ypHHTN-16" value="&lt;span style=&quot;white-space: pre;&quot;&gt;&#x9;&lt;/span&gt;" style="pointerEvents=1;verticalLabelPosition=bottom;shadow=0;dashed=0;align=center;html=1;verticalAlign=top;shape=mxgraph.electrical.resistors.resistor_1;rotation=90;fillColor=#e3c800;strokeColor=#B09500;fontColor=#000000;" vertex="1" parent="1">
          <mxGeometry x="130" y="280" width="100" height="20" as="geometry" />
        </mxCell>
        <mxCell id="nPWJXk-B_UrNQ5ypHHTN-17" value="&lt;span style=&quot;white-space: pre;&quot;&gt;&#x9;&lt;/span&gt;" style="pointerEvents=1;verticalLabelPosition=bottom;shadow=0;dashed=0;align=center;html=1;verticalAlign=top;shape=mxgraph.electrical.resistors.resistor_1;rotation=-180;fillColor=#bac8d3;strokeColor=#23445d;" vertex="1" parent="1">
          <mxGeometry x="54" y="230" width="100" height="20" as="geometry" />
        </mxCell>
        <mxCell id="nPWJXk-B_UrNQ5ypHHTN-18" value="" style="endArrow=none;html=1;rounded=0;entryX=1;entryY=0.5;entryDx=0;entryDy=0;entryPerimeter=0;exitX=0;exitY=0.5;exitDx=0;exitDy=0;exitPerimeter=0;" edge="1" parent="1" source="nPWJXk-B_UrNQ5ypHHTN-16" target="nPWJXk-B_UrNQ5ypHHTN-14">
          <mxGeometry width="50" height="50" relative="1" as="geometry">
            <mxPoint x="80" y="320" as="sourcePoint" />
            <mxPoint x="130" y="270" as="targetPoint" />
          </mxGeometry>
        </mxCell>
        <mxCell id="nPWJXk-B_UrNQ5ypHHTN-19" value="" style="endArrow=none;html=1;rounded=0;exitX=0;exitY=0.5;exitDx=0;exitDy=0;exitPerimeter=0;entryX=0;entryY=0.5;entryDx=0;entryDy=0;entryPerimeter=0;" edge="1" parent="1" source="nPWJXk-B_UrNQ5ypHHTN-17" target="nPWJXk-B_UrNQ5ypHHTN-16">
          <mxGeometry width="50" height="50" relative="1" as="geometry">
            <mxPoint x="140" y="270" as="sourcePoint" />
            <mxPoint x="190" y="220" as="targetPoint" />
          </mxGeometry>
        </mxCell>
        <mxCell id="nPWJXk-B_UrNQ5ypHHTN-20" value="" style="endArrow=none;html=1;rounded=0;entryX=0;entryY=0.5;entryDx=0;entryDy=0;entryPerimeter=0;exitX=1;exitY=0.5;exitDx=0;exitDy=0;exitPerimeter=0;" edge="1" parent="1" source="nPWJXk-B_UrNQ5ypHHTN-13" target="nPWJXk-B_UrNQ5ypHHTN-15">
          <mxGeometry width="50" height="50" relative="1" as="geometry">
            <mxPoint x="-40" y="260" as="sourcePoint" />
            <mxPoint x="10" y="210" as="targetPoint" />
          </mxGeometry>
        </mxCell>
        <mxCell id="nPWJXk-B_UrNQ5ypHHTN-21" value="" style="endArrow=none;html=1;rounded=0;entryX=1;entryY=0.5;entryDx=0;entryDy=0;entryPerimeter=0;exitX=0;exitY=0.5;exitDx=0;exitDy=0;exitPerimeter=0;" edge="1" parent="1" source="nPWJXk-B_UrNQ5ypHHTN-15" target="nPWJXk-B_UrNQ5ypHHTN-17">
          <mxGeometry width="50" height="50" relative="1" as="geometry">
            <mxPoint x="10" y="280" as="sourcePoint" />
            <mxPoint x="60" y="230" as="targetPoint" />
          </mxGeometry>
        </mxCell>
        <mxCell id="nPWJXk-B_UrNQ5ypHHTN-22" value="" style="endArrow=classic;html=1;rounded=0;" edge="1" parent="1">
          <mxGeometry width="50" height="50" relative="1" as="geometry">
            <mxPoint x="130" y="100" as="sourcePoint" />
            <mxPoint x="130" y="140" as="targetPoint" />
          </mxGeometry>
        </mxCell>
        <mxCell id="nPWJXk-B_UrNQ5ypHHTN-23" value="" style="endArrow=none;html=1;rounded=0;" edge="1" parent="1">
          <mxGeometry width="50" height="50" relative="1" as="geometry">
            <mxPoint x="130" y="100" as="sourcePoint" />
            <mxPoint x="180" y="100" as="targetPoint" />
          </mxGeometry>
        </mxCell>
        <mxCell id="nPWJXk-B_UrNQ5ypHHTN-24" value="$$E_{i}$$" style="text;html=1;align=center;verticalAlign=middle;whiteSpace=wrap;rounded=0;flipV=1;" vertex="1" parent="1">
          <mxGeometry x="120" y="70" width="60" height="30" as="geometry" />
        </mxCell>
        <mxCell id="nPWJXk-B_UrNQ5ypHHTN-25" value="$$Z_{p}$$" style="text;html=1;align=center;verticalAlign=middle;whiteSpace=wrap;rounded=0;" vertex="1" parent="1">
          <mxGeometry x="77" y="225" width="56" height="30" as="geometry" />
        </mxCell>
        <mxCell id="nPWJXk-B_UrNQ5ypHHTN-26" value="" style="endArrow=classic;html=1;rounded=0;" edge="1" parent="1">
          <mxGeometry width="50" height="50" relative="1" as="geometry">
            <mxPoint x="79.60428571428605" y="99.6" as="sourcePoint" />
            <mxPoint x="79.60428571428605" y="59.6" as="targetPoint" />
          </mxGeometry>
        </mxCell>
        <mxCell id="nPWJXk-B_UrNQ5ypHHTN-27" value="" style="endArrow=none;html=1;rounded=0;" edge="1" parent="1">
          <mxGeometry width="50" height="50" relative="1" as="geometry">
            <mxPoint x="79.60000000000002" y="99.6" as="sourcePoint" />
            <mxPoint x="29.600000000000023" y="99.6" as="targetPoint" />
          </mxGeometry>
        </mxCell>
        <mxCell id="nPWJXk-B_UrNQ5ypHHTN-28" value="$$E_{s}$$" style="text;html=1;align=center;verticalAlign=middle;whiteSpace=wrap;rounded=0;flipV=1;" vertex="1" parent="1">
          <mxGeometry x="30" y="100" width="60" height="30" as="geometry" />
        </mxCell>
        <mxCell id="nPWJXk-B_UrNQ5ypHHTN-29" value="" style="endArrow=none;html=1;rounded=0;exitX=1;exitY=0.5;exitDx=0;exitDy=0;exitPerimeter=0;entryX=1;entryY=0.5;entryDx=0;entryDy=0;entryPerimeter=0;" edge="1" parent="1" source="nPWJXk-B_UrNQ5ypHHTN-15" target="nPWJXk-B_UrNQ5ypHHTN-16">
          <mxGeometry width="50" height="50" relative="1" as="geometry">
            <mxPoint x="170" y="310" as="sourcePoint" />
            <mxPoint x="220" y="260" as="targetPoint" />
          </mxGeometry>
        </mxCell>
        <mxCell id="nPWJXk-B_UrNQ5ypHHTN-30" value="$$\eta_{0}$$" style="text;html=1;align=center;verticalAlign=middle;whiteSpace=wrap;rounded=0;" vertex="1" parent="1">
          <mxGeometry x="14" y="150" width="56" height="30" as="geometry" />
        </mxCell>
        <mxCell id="nPWJXk-B_UrNQ5ypHHTN-31" value="$$\eta_{d}$$" style="text;html=1;align=center;verticalAlign=middle;whiteSpace=wrap;rounded=0;" vertex="1" parent="1">
          <mxGeometry x="14" y="275" width="56" height="30" as="geometry" />
        </mxCell>
        <mxCell id="nPWJXk-B_UrNQ5ypHHTN-33" value="$$\eta_{0}$$" style="text;html=1;align=center;verticalAlign=middle;whiteSpace=wrap;rounded=0;" vertex="1" parent="1">
          <mxGeometry x="-230" y="155" width="56" height="30" as="geometry" />
        </mxCell>
        <mxCell id="nPWJXk-B_UrNQ5ypHHTN-35" value="$$\eta_{0}$$" style="text;html=1;align=center;verticalAlign=middle;whiteSpace=wrap;rounded=0;" vertex="1" parent="1">
          <mxGeometry x="-230" y="270" width="56" height="30" as="geometry" />
        </mxCell>
      </root>
    </mxGraphModel>
  </diagram>
</mxfile>
